<mxfile host="65bd71144e">
    <diagram id="C5RBs43oDa-KdzZeNtuy" name="Page-1">
        <mxGraphModel dx="1642" dy="830" grid="1" gridSize="10" guides="1" tooltips="1" connect="1" arrows="1" fold="1" page="0" pageScale="1" pageWidth="827" pageHeight="1169" background="none" math="0" shadow="0">
            <root>
                <mxCell id="WIyWlLk6GJQsqaUBKTNV-0"/>
                <mxCell id="WIyWlLk6GJQsqaUBKTNV-1" parent="WIyWlLk6GJQsqaUBKTNV-0"/>
                <mxCell id="32" value="Wandering" style="swimlane;fontSize=12;strokeColor=default;gradientColor=none;swimlaneFillColor=none;dashed=1;strokeWidth=1;perimeterSpacing=1;opacity=80;fillColor=none;fontStyle=1;swimlaneLine=0;" parent="WIyWlLk6GJQsqaUBKTNV-1" vertex="1">
                    <mxGeometry x="350" y="50" width="500" height="730" as="geometry"/>
                </mxCell>
                <mxCell id="2I1Crz_ZXlMl6JZm2lD2-74" value="Production" style="swimlane;fontStyle=0;childLayout=stackLayout;horizontal=1;startSize=20;horizontalStack=0;resizeParent=1;resizeParentMax=0;resizeLast=0;collapsible=1;marginBottom=0;rounded=1;shadow=0;glass=0;fillColor=none;" parent="32" vertex="1">
                    <mxGeometry x="100" y="280" width="140" height="50" as="geometry"/>
                </mxCell>
                <mxCell id="2I1Crz_ZXlMl6JZm2lD2-75" value="respond-standard" style="text;strokeColor=none;fillColor=none;align=center;verticalAlign=middle;spacingLeft=4;spacingRight=4;overflow=hidden;points=[[0,0.5],[1,0.5]];portConstraint=eastwest;rotatable=0;rounded=1;shadow=0;glass=0;" parent="2I1Crz_ZXlMl6JZm2lD2-74" vertex="1">
                    <mxGeometry y="20" width="140" height="30" as="geometry"/>
                </mxCell>
                <mxCell id="26" value="Positive Reward&lt;br&gt;(to attend)" style="rounded=0;whiteSpace=wrap;html=1;fontSize=12;fillColor=none;dashed=1;" parent="32" vertex="1">
                    <mxGeometry x="370" y="190" width="120" height="50" as="geometry"/>
                </mxCell>
                <mxCell id="33" value="Attending" style="swimlane;fontSize=12;strokeColor=default;gradientColor=none;swimlaneFillColor=none;dashed=1;opacity=80;fillColor=none;swimlaneLine=0;" parent="WIyWlLk6GJQsqaUBKTNV-1" vertex="1">
                    <mxGeometry x="-50" y="50" width="400" height="730" as="geometry"/>
                </mxCell>
                <mxCell id="2I1Crz_ZXlMl6JZm2lD2-21" value="Production" style="swimlane;fontStyle=0;childLayout=stackLayout;horizontal=1;startSize=20;horizontalStack=0;resizeParent=1;resizeParentMax=0;resizeLast=0;collapsible=1;marginBottom=0;rounded=1;shadow=0;glass=0;fillColor=none;" parent="33" vertex="1">
                    <mxGeometry x="130" y="270" width="140" height="50" as="geometry"/>
                </mxCell>
                <mxCell id="2I1Crz_ZXlMl6JZm2lD2-22" value="identify-stimulus" style="text;strokeColor=none;fillColor=none;align=center;verticalAlign=middle;spacingLeft=4;spacingRight=4;overflow=hidden;points=[[0,0.5],[1,0.5]];portConstraint=eastwest;rotatable=0;rounded=1;shadow=0;glass=0;" parent="2I1Crz_ZXlMl6JZm2lD2-21" vertex="1">
                    <mxGeometry y="20" width="140" height="30" as="geometry"/>
                </mxCell>
                <mxCell id="42" style="edgeStyle=orthogonalEdgeStyle;html=1;curved=1;entryX=0;entryY=0.5;entryDx=0;entryDy=0;dashed=1;" edge="1" parent="33" source="16" target="19">
                    <mxGeometry relative="1" as="geometry">
                        <Array as="points">
                            <mxPoint x="200" y="435"/>
                        </Array>
                    </mxGeometry>
                </mxCell>
                <mxCell id="16" value="Production" style="swimlane;fontStyle=0;childLayout=stackLayout;horizontal=1;startSize=20;horizontalStack=0;resizeParent=1;resizeParentMax=0;resizeLast=0;collapsible=1;marginBottom=0;rounded=1;shadow=0;glass=0;fillColor=none;" parent="33" vertex="1">
                    <mxGeometry x="130" y="350" width="140" height="50" as="geometry"/>
                </mxCell>
                <mxCell id="17" value="retrieve-response" style="text;strokeColor=none;fillColor=none;align=center;verticalAlign=middle;spacingLeft=4;spacingRight=4;overflow=hidden;points=[[0,0.5],[1,0.5]];portConstraint=eastwest;rotatable=0;rounded=1;shadow=0;glass=0;" parent="16" vertex="1">
                    <mxGeometry y="20" width="140" height="30" as="geometry"/>
                </mxCell>
                <mxCell id="2I1Crz_ZXlMl6JZm2lD2-32" value="Production" style="swimlane;fontStyle=0;childLayout=stackLayout;horizontal=1;startSize=20;horizontalStack=0;resizeParent=1;resizeParentMax=0;resizeLast=0;collapsible=1;marginBottom=0;rounded=1;shadow=0;glass=0;swimlaneFillColor=none;fillColor=none;" parent="33" vertex="1">
                    <mxGeometry x="55" y="500" width="140" height="50" as="geometry"/>
                </mxCell>
                <mxCell id="2I1Crz_ZXlMl6JZm2lD2-33" value="respond-if-O" style="text;strokeColor=none;fillColor=none;align=center;verticalAlign=middle;spacingLeft=4;spacingRight=4;overflow=hidden;points=[[0,0.5],[1,0.5]];portConstraint=eastwest;rotatable=0;rounded=1;shadow=0;glass=0;" parent="2I1Crz_ZXlMl6JZm2lD2-32" vertex="1">
                    <mxGeometry y="20" width="140" height="30" as="geometry"/>
                </mxCell>
                <mxCell id="2I1Crz_ZXlMl6JZm2lD2-34" value="Production" style="swimlane;fontStyle=0;childLayout=stackLayout;horizontal=1;startSize=20;horizontalStack=0;resizeParent=1;resizeParentMax=0;resizeLast=0;collapsible=1;marginBottom=0;rounded=1;shadow=0;glass=0;fillColor=none;" parent="33" vertex="1">
                    <mxGeometry x="205" y="500" width="140" height="50" as="geometry"/>
                </mxCell>
                <mxCell id="2I1Crz_ZXlMl6JZm2lD2-35" value="dont-respond-if-Q" style="text;strokeColor=none;fillColor=none;align=center;verticalAlign=middle;spacingLeft=4;spacingRight=4;overflow=hidden;points=[[0,0.5],[1,0.5]];portConstraint=eastwest;rotatable=0;rounded=1;shadow=0;glass=0;" parent="2I1Crz_ZXlMl6JZm2lD2-34" vertex="1">
                    <mxGeometry y="20" width="140" height="30" as="geometry"/>
                </mxCell>
                <mxCell id="20" value="Negative Reward&lt;br&gt;(to attend)" style="rounded=0;whiteSpace=wrap;html=1;fontSize=12;fillColor=none;dashed=1;" parent="33" vertex="1">
                    <mxGeometry x="270" y="660" width="120" height="50" as="geometry"/>
                </mxCell>
                <mxCell id="2I1Crz_ZXlMl6JZm2lD2-47" value="target stimulus" style="edgeStyle=orthogonalEdgeStyle;curved=1;rounded=0;orthogonalLoop=1;jettySize=auto;html=1;entryX=0.5;entryY=0;entryDx=0;entryDy=0;labelBackgroundColor=none;startArrow=none;fontSize=12;exitX=0.5;exitY=1;exitDx=0;exitDy=0;exitPerimeter=0;" parent="33" source="17" target="2I1Crz_ZXlMl6JZm2lD2-32" edge="1">
                    <mxGeometry x="0.7714" y="-45" relative="1" as="geometry">
                        <mxPoint as="offset"/>
                        <mxPoint x="203.99999999999977" y="470" as="sourcePoint"/>
                    </mxGeometry>
                </mxCell>
                <mxCell id="2I1Crz_ZXlMl6JZm2lD2-48" value="&lt;div style=&quot;font-size: 12px;&quot;&gt;non-target stimulus&lt;/div&gt;" style="edgeStyle=orthogonalEdgeStyle;curved=1;rounded=0;orthogonalLoop=1;jettySize=auto;html=1;labelBackgroundColor=none;exitX=0.507;exitY=1;exitDx=0;exitDy=0;fontSize=12;exitPerimeter=0;" parent="33" source="17" target="2I1Crz_ZXlMl6JZm2lD2-34" edge="1">
                    <mxGeometry x="0.7701" y="55" relative="1" as="geometry">
                        <mxPoint as="offset"/>
                        <mxPoint x="203.99999999999977" y="470" as="sourcePoint"/>
                    </mxGeometry>
                </mxCell>
                <mxCell id="22" style="edgeStyle=orthogonalEdgeStyle;curved=1;html=1;labelBackgroundColor=none;fontSize=12;endArrow=classic;endFill=1;" parent="33" source="2I1Crz_ZXlMl6JZm2lD2-32" target="40" edge="1">
                    <mxGeometry relative="1" as="geometry"/>
                </mxCell>
                <mxCell id="21" style="edgeStyle=orthogonalEdgeStyle;curved=1;html=1;labelBackgroundColor=none;fontSize=12;endArrow=classic;endFill=1;" parent="33" source="2I1Crz_ZXlMl6JZm2lD2-34" target="40" edge="1">
                    <mxGeometry relative="1" as="geometry"/>
                </mxCell>
                <mxCell id="18" value="" style="edgeStyle=orthogonalEdgeStyle;curved=1;rounded=0;orthogonalLoop=1;jettySize=auto;html=1;endArrow=classic;endFill=1;" parent="33" source="2I1Crz_ZXlMl6JZm2lD2-21" target="16" edge="1">
                    <mxGeometry relative="1" as="geometry">
                        <mxPoint x="204" y="240" as="sourcePoint"/>
                        <mxPoint x="204" y="340" as="targetPoint"/>
                    </mxGeometry>
                </mxCell>
                <mxCell id="19" value="Positive Reward&lt;br&gt;(to attend)" style="rounded=0;whiteSpace=wrap;html=1;fontSize=12;fillColor=none;dashed=1;" parent="33" vertex="1">
                    <mxGeometry x="270" y="410" width="120" height="50" as="geometry"/>
                </mxCell>
                <mxCell id="46" style="edgeStyle=orthogonalEdgeStyle;curved=1;html=1;endArrow=classic;endFill=1;" edge="1" parent="33" source="2I1Crz_ZXlMl6JZm2lD2-1" target="45">
                    <mxGeometry relative="1" as="geometry">
                        <Array as="points">
                            <mxPoint x="250" y="195"/>
                        </Array>
                    </mxGeometry>
                </mxCell>
                <mxCell id="2I1Crz_ZXlMl6JZm2lD2-1" value="Production" style="swimlane;fontStyle=0;childLayout=stackLayout;horizontal=1;startSize=20;horizontalStack=0;resizeParent=1;resizeParentMax=0;resizeLast=0;collapsible=1;marginBottom=0;rounded=1;shadow=0;glass=0;fillColor=none;" parent="33" vertex="1">
                    <mxGeometry x="65" y="170" width="140" height="50" as="geometry"/>
                </mxCell>
                <mxCell id="2I1Crz_ZXlMl6JZm2lD2-2" value="attend" style="text;strokeColor=none;fillColor=none;align=center;verticalAlign=middle;spacingLeft=4;spacingRight=4;overflow=hidden;points=[[0,0.5],[1,0.5]];portConstraint=eastwest;rotatable=0;rounded=1;shadow=0;glass=0;" parent="2I1Crz_ZXlMl6JZm2lD2-1" vertex="1">
                    <mxGeometry y="20" width="140" height="30" as="geometry"/>
                </mxCell>
                <mxCell id="2I1Crz_ZXlMl6JZm2lD2-44" style="edgeStyle=orthogonalEdgeStyle;curved=1;rounded=0;orthogonalLoop=1;jettySize=auto;html=1;entryX=0.5;entryY=0;entryDx=0;entryDy=0;" parent="33" source="2I1Crz_ZXlMl6JZm2lD2-1" target="2I1Crz_ZXlMl6JZm2lD2-21" edge="1">
                    <mxGeometry relative="1" as="geometry"/>
                </mxCell>
                <mxCell id="43" style="edgeStyle=orthogonalEdgeStyle;curved=1;html=1;dashed=1;" edge="1" parent="33" source="40" target="20">
                    <mxGeometry relative="1" as="geometry">
                        <Array as="points">
                            <mxPoint x="210" y="695"/>
                        </Array>
                    </mxGeometry>
                </mxCell>
                <mxCell id="40" value="Production" style="swimlane;fontStyle=0;childLayout=stackLayout;horizontal=1;startSize=20;horizontalStack=0;resizeParent=1;resizeParentMax=0;resizeLast=0;collapsible=1;marginBottom=0;rounded=1;shadow=0;glass=0;swimlaneFillColor=none;fillColor=none;" vertex="1" parent="33">
                    <mxGeometry x="130" y="600" width="140" height="50" as="geometry"/>
                </mxCell>
                <mxCell id="41" value="prepare-for-next" style="text;strokeColor=none;fillColor=none;align=center;verticalAlign=middle;spacingLeft=4;spacingRight=4;overflow=hidden;points=[[0,0.5],[1,0.5]];portConstraint=eastwest;rotatable=0;rounded=1;shadow=0;glass=0;" vertex="1" parent="40">
                    <mxGeometry y="20" width="140" height="30" as="geometry"/>
                </mxCell>
                <mxCell id="51" style="edgeStyle=orthogonalEdgeStyle;curved=1;html=1;dashed=1;endArrow=classic;endFill=1;" edge="1" parent="33" source="44" target="38">
                    <mxGeometry relative="1" as="geometry">
                        <Array as="points">
                            <mxPoint x="360" y="130"/>
                        </Array>
                    </mxGeometry>
                </mxCell>
                <mxCell id="44" value="Production" style="swimlane;fontStyle=0;childLayout=stackLayout;horizontal=1;startSize=20;horizontalStack=0;resizeParent=1;resizeParentMax=0;resizeLast=0;collapsible=1;marginBottom=0;rounded=1;shadow=0;glass=0;fillColor=none;" vertex="1" parent="33">
                    <mxGeometry x="195" y="100" width="140" height="50" as="geometry">
                        <mxRectangle x="195" y="100" width="90" height="20" as="alternateBounds"/>
                    </mxGeometry>
                </mxCell>
                <mxCell id="45" value="check-current-goal" style="text;strokeColor=none;fillColor=none;align=center;verticalAlign=middle;spacingLeft=4;spacingRight=4;overflow=hidden;points=[[0,0.5],[1,0.5]];portConstraint=eastwest;rotatable=0;rounded=1;shadow=0;glass=0;" vertex="1" parent="44">
                    <mxGeometry y="20" width="140" height="30" as="geometry"/>
                </mxCell>
                <mxCell id="38" value="Negative Reward&lt;br&gt;(to attend)" style="rounded=0;whiteSpace=wrap;html=1;fontSize=12;fillColor=none;dashed=1;" parent="33" vertex="1">
                    <mxGeometry x="270" y="170" width="120" height="50" as="geometry"/>
                </mxCell>
                <mxCell id="9" value="Yes" style="edgeStyle=orthogonalEdgeStyle;curved=1;html=1;fontSize=12;labelBackgroundColor=none;labelPosition=center;verticalLabelPosition=bottom;align=center;verticalAlign=top;" parent="WIyWlLk6GJQsqaUBKTNV-1" source="4" target="UtOH4rOj3gADrwU_OdTL-1" edge="1">
                    <mxGeometry x="-0.1892" relative="1" as="geometry">
                        <mxPoint x="1" as="offset"/>
                    </mxGeometry>
                </mxCell>
                <mxCell id="7" value="No" style="edgeStyle=orthogonalEdgeStyle;html=1;fontSize=12;curved=1;exitX=0;exitY=0.5;exitDx=0;exitDy=0;labelBackgroundColor=none;labelPosition=center;verticalLabelPosition=bottom;align=center;verticalAlign=top;" parent="WIyWlLk6GJQsqaUBKTNV-1" source="4" target="2I1Crz_ZXlMl6JZm2lD2-1" edge="1">
                    <mxGeometry x="-0.4803" y="5" relative="1" as="geometry">
                        <Array as="points">
                            <mxPoint x="100" y="115"/>
                        </Array>
                        <mxPoint as="offset"/>
                    </mxGeometry>
                </mxCell>
                <mxCell id="2I1Crz_ZXlMl6JZm2lD2-43" value="stimulus&amp;nbsp;&amp;nbsp; &amp;nbsp; appearance" style="endArrow=none;dashed=1;html=1;dashPattern=1 3;strokeWidth=2;rounded=0;curved=1;fontStyle=2;spacingLeft=15;labelBackgroundColor=none;fontSize=13;" parent="WIyWlLk6GJQsqaUBKTNV-1" edge="1">
                    <mxGeometry x="-0.1111" y="10" width="50" height="50" relative="1" as="geometry">
                        <mxPoint x="-50" y="300" as="sourcePoint"/>
                        <mxPoint x="850" y="300" as="targetPoint"/>
                        <mxPoint as="offset"/>
                    </mxGeometry>
                </mxCell>
                <mxCell id="4" value="&lt;font style=&quot;font-size: 12px&quot;&gt;Attend utility&lt;br&gt;&amp;lt;&lt;br&gt;Wander utility&lt;br&gt;&lt;/font&gt;" style="rhombus;whiteSpace=wrap;html=1;fillColor=default;" parent="WIyWlLk6GJQsqaUBKTNV-1" vertex="1">
                    <mxGeometry x="280" y="70" width="140" height="90" as="geometry"/>
                </mxCell>
                <mxCell id="2I1Crz_ZXlMl6JZm2lD2-73" style="edgeStyle=orthogonalEdgeStyle;curved=1;rounded=0;orthogonalLoop=1;jettySize=auto;html=1;exitX=0.5;exitY=1;exitDx=0;exitDy=0;labelBackgroundColor=none;entryX=0.5;entryY=0;entryDx=0;entryDy=0;" parent="WIyWlLk6GJQsqaUBKTNV-1" source="2I1Crz_ZXlMl6JZm2lD2-52" target="2I1Crz_ZXlMl6JZm2lD2-74" edge="1">
                    <mxGeometry relative="1" as="geometry">
                        <mxPoint x="655.3333333333335" y="-220" as="targetPoint"/>
                    </mxGeometry>
                </mxCell>
                <mxCell id="2I1Crz_ZXlMl6JZm2lD2-52" value="Production" style="swimlane;fontStyle=0;childLayout=stackLayout;horizontal=1;startSize=20;horizontalStack=0;resizeParent=1;resizeParentMax=0;resizeLast=0;collapsible=1;marginBottom=0;rounded=1;shadow=0;glass=0;fillColor=none;" parent="WIyWlLk6GJQsqaUBKTNV-1" vertex="1">
                    <mxGeometry x="450" y="160" width="140" height="50" as="geometry"/>
                </mxCell>
                <mxCell id="2I1Crz_ZXlMl6JZm2lD2-53" value="retrieve-memory" style="text;strokeColor=none;fillColor=none;align=center;verticalAlign=middle;spacingLeft=4;spacingRight=4;overflow=hidden;points=[[0,0.5],[1,0.5]];portConstraint=eastwest;rotatable=0;rounded=1;shadow=0;glass=0;" parent="2I1Crz_ZXlMl6JZm2lD2-52" vertex="1">
                    <mxGeometry y="20" width="140" height="30" as="geometry"/>
                </mxCell>
                <mxCell id="UtOH4rOj3gADrwU_OdTL-1" value="Production" style="swimlane;fontStyle=0;childLayout=stackLayout;horizontal=1;startSize=20;horizontalStack=0;resizeParent=1;resizeParentMax=0;resizeLast=0;collapsible=1;marginBottom=0;rounded=1;shadow=0;glass=0;fillColor=none;" parent="WIyWlLk6GJQsqaUBKTNV-1" vertex="1">
                    <mxGeometry x="450" y="90" width="140" height="50" as="geometry"/>
                </mxCell>
                <mxCell id="UtOH4rOj3gADrwU_OdTL-2" value="wander" style="text;strokeColor=none;fillColor=none;align=center;verticalAlign=middle;spacingLeft=4;spacingRight=4;overflow=hidden;points=[[0,0.5],[1,0.5]];portConstraint=eastwest;rotatable=0;rounded=1;shadow=0;glass=0;" parent="UtOH4rOj3gADrwU_OdTL-1" vertex="1">
                    <mxGeometry y="20" width="140" height="30" as="geometry"/>
                </mxCell>
                <mxCell id="UtOH4rOj3gADrwU_OdTL-6" value="any memory" style="edgeStyle=orthogonalEdgeStyle;rounded=0;orthogonalLoop=1;jettySize=auto;html=1;labelBackgroundColor=none;curved=1;labelPosition=center;verticalLabelPosition=top;align=center;verticalAlign=bottom;fontSize=12;" parent="WIyWlLk6GJQsqaUBKTNV-1" source="2I1Crz_ZXlMl6JZm2lD2-53" target="2I1Crz_ZXlMl6JZm2lD2-78" edge="1">
                    <mxGeometry x="0.5677" relative="1" as="geometry">
                        <Array as="points">
                            <mxPoint x="620" y="195"/>
                            <mxPoint x="620" y="110"/>
                        </Array>
                        <mxPoint as="offset"/>
                    </mxGeometry>
                </mxCell>
                <mxCell id="UtOH4rOj3gADrwU_OdTL-5" value="&lt;div style=&quot;font-size: 12px;&quot;&gt;remember task&lt;/div&gt;" style="edgeStyle=orthogonalEdgeStyle;rounded=0;orthogonalLoop=1;jettySize=auto;html=1;labelPosition=center;verticalLabelPosition=middle;align=center;verticalAlign=middle;labelBackgroundColor=none;fontSize=12;" parent="WIyWlLk6GJQsqaUBKTNV-1" source="2I1Crz_ZXlMl6JZm2lD2-53" target="2I1Crz_ZXlMl6JZm2lD2-57" edge="1">
                    <mxGeometry y="-5" relative="1" as="geometry">
                        <mxPoint as="offset"/>
                    </mxGeometry>
                </mxCell>
                <mxCell id="UtOH4rOj3gADrwU_OdTL-7" style="edgeStyle=orthogonalEdgeStyle;curved=1;rounded=0;orthogonalLoop=1;jettySize=auto;html=1;labelBackgroundColor=none;" parent="WIyWlLk6GJQsqaUBKTNV-1" source="2I1Crz_ZXlMl6JZm2lD2-79" target="2I1Crz_ZXlMl6JZm2lD2-52" edge="1">
                    <mxGeometry relative="1" as="geometry">
                        <Array as="points">
                            <mxPoint x="704" y="125"/>
                            <mxPoint x="704" y="170"/>
                        </Array>
                    </mxGeometry>
                </mxCell>
                <mxCell id="28" value="" style="edgeStyle=orthogonalEdgeStyle;curved=1;html=1;labelBackgroundColor=none;fontSize=12;endArrow=classic;endFill=1;dashed=1;" parent="WIyWlLk6GJQsqaUBKTNV-1" source="2I1Crz_ZXlMl6JZm2lD2-56" target="26" edge="1">
                    <mxGeometry relative="1" as="geometry">
                        <Array as="points">
                            <mxPoint x="780" y="220"/>
                            <mxPoint x="780" y="220"/>
                        </Array>
                    </mxGeometry>
                </mxCell>
                <mxCell id="2I1Crz_ZXlMl6JZm2lD2-56" value="Production" style="swimlane;fontStyle=0;childLayout=stackLayout;horizontal=1;startSize=20;horizontalStack=0;resizeParent=1;resizeParentMax=0;resizeLast=0;collapsible=1;marginBottom=0;rounded=1;shadow=0;glass=0;strokeColor=default;fillColor=none;" parent="WIyWlLk6GJQsqaUBKTNV-1" vertex="1">
                    <mxGeometry x="690" y="160" width="140" height="50" as="geometry">
                        <mxRectangle x="280" y="90" width="90" height="20" as="alternateBounds"/>
                    </mxGeometry>
                </mxCell>
                <mxCell id="2I1Crz_ZXlMl6JZm2lD2-57" value="remember-to-attend" style="text;strokeColor=none;fillColor=none;align=center;verticalAlign=middle;spacingLeft=4;spacingRight=4;overflow=hidden;points=[[0,0.5],[1,0.5]];portConstraint=eastwest;rotatable=0;rounded=1;shadow=0;glass=0;" parent="2I1Crz_ZXlMl6JZm2lD2-56" vertex="1">
                    <mxGeometry y="20" width="140" height="30" as="geometry"/>
                </mxCell>
                <mxCell id="2I1Crz_ZXlMl6JZm2lD2-78" value="Production" style="swimlane;fontStyle=0;childLayout=stackLayout;horizontal=1;startSize=20;horizontalStack=0;resizeParent=1;resizeParentMax=0;resizeLast=0;collapsible=1;marginBottom=0;rounded=1;shadow=0;glass=0;strokeColor=default;fillColor=none;" parent="WIyWlLk6GJQsqaUBKTNV-1" vertex="1">
                    <mxGeometry x="690" y="90" width="140" height="50" as="geometry">
                        <mxRectangle x="280" y="30" width="90" height="20" as="alternateBounds"/>
                    </mxGeometry>
                </mxCell>
                <mxCell id="2I1Crz_ZXlMl6JZm2lD2-79" value="attend-memory" style="text;strokeColor=none;fillColor=none;align=center;verticalAlign=middle;spacingLeft=4;spacingRight=4;overflow=hidden;points=[[0,0.5],[1,0.5]];portConstraint=eastwest;rotatable=0;rounded=1;shadow=0;glass=0;" parent="2I1Crz_ZXlMl6JZm2lD2-78" vertex="1">
                    <mxGeometry y="20" width="140" height="30" as="geometry"/>
                </mxCell>
                <mxCell id="UtOH4rOj3gADrwU_OdTL-9" style="edgeStyle=orthogonalEdgeStyle;curved=1;rounded=0;orthogonalLoop=1;jettySize=auto;html=1;labelBackgroundColor=none;" parent="WIyWlLk6GJQsqaUBKTNV-1" source="UtOH4rOj3gADrwU_OdTL-1" target="2I1Crz_ZXlMl6JZm2lD2-52" edge="1">
                    <mxGeometry relative="1" as="geometry"/>
                </mxCell>
                <mxCell id="23" style="edgeStyle=orthogonalEdgeStyle;curved=1;html=1;labelBackgroundColor=none;fontSize=12;endArrow=classic;endFill=1;" parent="WIyWlLk6GJQsqaUBKTNV-1" source="40" edge="1">
                    <mxGeometry relative="1" as="geometry">
                        <mxPoint x="310" y="90" as="targetPoint"/>
                        <Array as="points">
                            <mxPoint x="154" y="720"/>
                            <mxPoint x="-40" y="720"/>
                            <mxPoint x="-40" y="90"/>
                        </Array>
                        <mxPoint x="110" y="740" as="sourcePoint"/>
                    </mxGeometry>
                </mxCell>
                <mxCell id="35" style="edgeStyle=orthogonalEdgeStyle;curved=1;html=1;entryX=1;entryY=1;entryDx=0;entryDy=0;labelBackgroundColor=none;fontSize=12;endArrow=classic;endFill=1;" parent="WIyWlLk6GJQsqaUBKTNV-1" source="2I1Crz_ZXlMl6JZm2lD2-56" target="4" edge="1">
                    <mxGeometry relative="1" as="geometry">
                        <Array as="points">
                            <mxPoint x="760" y="240"/>
                            <mxPoint x="385" y="240"/>
                        </Array>
                    </mxGeometry>
                </mxCell>
                <mxCell id="47" style="edgeStyle=orthogonalEdgeStyle;curved=1;html=1;endArrow=classic;endFill=1;" edge="1" parent="WIyWlLk6GJQsqaUBKTNV-1" source="44" target="4">
                    <mxGeometry relative="1" as="geometry">
                        <Array as="points">
                            <mxPoint x="320" y="180"/>
                        </Array>
                    </mxGeometry>
                </mxCell>
                <mxCell id="52" value="" style="swimlane;startSize=0;" vertex="1" parent="WIyWlLk6GJQsqaUBKTNV-1">
                    <mxGeometry x="-50" y="50" width="900" height="730" as="geometry"/>
                </mxCell>
            </root>
        </mxGraphModel>
    </diagram>
</mxfile>